<svg width="119" height="24" viewBox="0 0 119 24" fill="none" xmlns="http://www.w3.org/2000/svg">
<path d="M1.98 4.34C1.76 4.52 1.53 4.69 1.29 4.85C1.05 5.01 0.77 5.09 0.45 5.09C0.15 5.09 0 4.82 0 4.28C0 3.18 0.51 2.28 1.53 1.58C2.51 0.859998 3.68 0.499998 5.04 0.499998C6.4 0.499998 7.42 1.06 8.1 2.18C8.62 3 8.88 3.93 8.88 4.97C8.88 5.99 8.77 6.99 8.55 7.97C8.33 8.93 8.09 9.92 7.83 10.94C7.59 11.96 7.36 13 7.14 14.06C6.92 15.1 6.81 15.96 6.81 16.64C6.81 17.3 6.84 17.74 6.9 17.96C7.18 18.84 7.94 19.28 9.18 19.28C10.12 19.28 11 19.01 11.82 18.47C14.08 16.99 15.52 14.06 16.14 9.68C14.52 9.58 13.27 9.07 12.39 8.15C11.53 7.21 11.1 5.95 11.1 4.37C11.1 3.23 11.47 2.27 12.21 1.49C12.95 0.709999 13.96 0.319999 15.24 0.319999C16.52 0.299999 17.48 0.739999 18.12 1.64C18.76 2.54 19.08 3.76 19.08 5.3V5.99C19.08 6.23 19.07 6.46 19.05 6.68C19.39 6.52 19.68 6.36 19.92 6.2C20.16 6.02 20.4 5.93 20.64 5.93C21.04 5.93 21.24 6.1 21.24 6.44C21.24 7.1 21.03 7.68 20.61 8.18C20.21 8.66 19.66 9.03 18.96 9.29C18.76 11.87 18.43 13.84 17.97 15.2C17.53 16.56 17.05 17.69 16.53 18.59C16.03 19.49 15.38 20.28 14.58 20.96C12.9 22.38 10.73 23.09 8.07 23.09C6.29 23.09 4.87 22.65 3.81 21.77C2.77 20.87 2.25 19.46 2.25 17.54C2.25 17.08 2.5 15.87 3 13.91C3.52 11.93 3.93 10.31 4.23 9.05C4.53 7.77 4.68 6.76 4.68 6.02C4.68 4.4 4.27 3.59 3.45 3.59C3.17 3.59 2.91 3.67 2.67 3.83C2.45 3.99 2.22 4.16 1.98 4.34ZM16.41 6.59C16.45 6.03 16.47 5.46 16.47 4.88C16.47 3.58 16.17 2.93 15.57 2.93C15.15 2.91 14.94 3.24 14.94 3.92C14.94 5.16 15.43 6.05 16.41 6.59ZM32.7661 20.45C31.1861 22.31 29.2861 23.24 27.0661 23.24C24.8661 23.24 23.2161 22.68 22.1161 21.56C21.0161 20.42 20.4761 19.01 20.4961 17.33C20.4761 14.95 21.2261 12.9 22.7461 11.18C24.2661 9.46 26.2561 8.6 28.7161 8.6C29.8361 8.6 30.7361 8.74 31.4161 9.02C32.5961 9.5 33.1861 9.95 33.1861 10.37C33.1861 10.69 32.3561 10.86 30.6961 10.88C29.0561 10.88 27.6761 11.45 26.5561 12.59C25.4561 13.71 24.9061 15.13 24.9061 16.85C24.9061 17.75 25.1661 18.51 25.6861 19.13C26.2261 19.73 26.9761 20.03 27.9361 20.03C28.9161 20.03 29.7261 19.83 30.3661 19.43C28.9461 18.47 28.2361 17.08 28.2361 15.26C28.2161 14.3 28.5561 13.43 29.2561 12.65C29.9761 11.85 30.8861 11.45 31.9861 11.45C33.1061 11.43 33.9061 11.73 34.3861 12.35C34.8661 12.97 35.1061 13.77 35.1061 14.75C35.1061 15.71 34.8761 16.73 34.4161 17.81H34.5961C35.4761 17.79 36.2361 17.48 36.8761 16.88C37.1161 16.64 37.3161 16.43 37.4761 16.25C37.6561 16.07 37.8361 15.98 38.0161 15.98C38.2961 15.98 38.4361 16.31 38.4361 16.97C38.4361 18.19 38.0761 19.11 37.3561 19.73C36.6361 20.33 35.8361 20.63 34.9561 20.63C34.0961 20.63 33.3661 20.57 32.7661 20.45ZM32.4961 16.97C32.8361 16.25 33.0061 15.55 33.0061 14.87C33.0061 14.19 32.7861 13.85 32.3461 13.85C32.1661 13.85 32.0161 13.98 31.8961 14.24C31.7761 14.5 31.7161 14.75 31.7161 14.99C31.7161 15.79 31.9761 16.45 32.4961 16.97ZM46.2652 10.34C46.2652 9 47.3052 8.33 49.3852 8.33C49.9052 8.33 50.2252 8.5 50.3452 8.84C50.4852 9.18 50.5552 9.7 50.5552 10.4C50.5552 11.38 50.3352 12.9 49.8952 14.96C49.4552 17.02 49.2452 18.41 49.2652 19.13C49.2652 19.47 49.3752 19.64 49.5952 19.64C49.8952 19.64 50.2652 19.45 50.7052 19.07C51.1452 18.69 51.5852 18.28 52.0252 17.84C52.4652 17.38 52.8652 16.96 53.2252 16.58C53.6052 16.2 53.8652 16.01 54.0052 16.01C54.2852 16.01 54.4252 16.35 54.4252 17.03C54.4252 18.43 53.7352 19.78 52.3552 21.08C50.0352 22.44 48.5652 23.12 47.9452 23.12C47.8852 23.12 47.8352 23.11 47.7952 23.09C47.0352 23.09 46.4952 22.84 46.1752 22.34C45.8752 21.84 45.6852 21.21 45.6052 20.45C45.2052 21.19 44.6552 21.83 43.9552 22.37C43.2552 22.89 42.4552 23.15 41.5552 23.15C39.9752 23.15 38.7552 22.85 37.8952 22.25C37.0552 21.65 36.6352 20.76 36.6352 19.58C36.6352 19.06 36.7052 18.58 36.8452 18.14C37.0052 17.7 37.2552 17.16 37.5952 16.52L38.4652 9.14C39.0852 8.66 39.9752 8.42 41.1352 8.42C42.0552 8.42 42.5752 9.02 42.6952 10.22C42.7952 11.2 42.7452 12.08 42.5452 12.86C42.3652 13.62 42.1152 14.59 41.7952 15.77C41.4752 16.93 41.3152 17.96 41.3152 18.86C41.3152 19.58 41.7652 19.94 42.6652 19.94C43.6452 19.94 44.4952 19.08 45.2152 17.36C45.7752 16.04 46.1552 14.57 46.3552 12.95C46.3352 12.79 46.3152 12.59 46.2952 12.35C46.2952 12.09 46.2852 11.84 46.2652 11.6C46.2652 11.36 46.2652 11.12 46.2652 10.88V10.34ZM64.8413 15.92C65.2013 15.92 65.3813 16.23 65.3813 16.85C65.3813 17.45 65.2213 18.1 64.9013 18.8C64.6013 19.5 64.1313 20.18 63.4913 20.84C62.8713 21.48 62.0713 22.03 61.0913 22.49C60.1113 22.95 58.9513 23.18 57.6113 23.18C56.2913 23.18 55.1313 22.79 54.1313 22.01C53.1313 21.21 52.6313 20.07 52.6313 18.59C52.6313 17.09 52.8613 15.74 53.3213 14.54C53.8013 13.32 54.4213 12.27 55.1813 11.39C55.9613 10.51 56.8413 9.83 57.8213 9.35C58.8013 8.85 59.7313 8.6 60.6113 8.6C62.1513 8.6 62.9213 9.21 62.9213 10.43C62.9213 11.13 62.7713 11.69 62.4713 12.11C62.1913 12.53 61.9013 12.74 61.6013 12.74C61.2013 12.74 60.8513 12.6 60.5513 12.32C60.2513 12.04 59.9213 11.9 59.5613 11.9C59.2013 11.88 58.8513 12.05 58.5113 12.41C58.1913 12.77 57.9213 13.23 57.7013 13.79C57.2613 14.91 57.0413 16.22 57.0413 17.72C57.0613 18.44 57.3913 18.98 58.0313 19.34C58.4713 19.58 58.9913 19.71 59.5913 19.73C60.1913 19.73 60.7613 19.53 61.3013 19.13C61.8613 18.73 62.3713 18.3 62.8313 17.84C63.2913 17.36 63.6913 16.92 64.0313 16.52C64.3913 16.12 64.6613 15.92 64.8413 15.92ZM73.8783 12.92C73.8783 12.2 73.4483 11.84 72.5883 11.84C71.7483 11.84 70.9183 12.5 70.0983 13.82C69.2783 15.12 68.7683 16.45 68.5683 17.81C68.6083 18.27 68.6483 18.73 68.6883 19.19C68.7283 19.65 68.7483 20.1 68.7483 20.54C68.7483 21.6 68.3983 22.32 67.6983 22.7C67.3783 22.88 67.0683 23.05 66.7683 23.21C66.4883 23.37 66.1583 23.45 65.7783 23.45C65.3983 23.45 65.0583 23.2 64.7583 22.7C64.4783 22.18 64.3383 21.38 64.3383 20.3C64.3383 17.28 64.5583 14.66 64.9983 12.44C65.6783 9 67.0283 5.32 69.0483 1.4C69.3283 0.859999 69.7383 0.599999 70.2783 0.619998C70.8183 0.619998 71.2583 0.989998 71.5983 1.73C71.9383 2.47 72.0983 3.09 72.0783 3.59C72.0783 4.09 71.9983 4.58 71.8383 5.06C71.6983 5.52 71.5083 5.98 71.2683 6.44C71.0483 6.88 70.7883 7.34 70.4883 7.82C70.2083 8.28 69.9283 8.78 69.6483 9.32L69.1983 11.48C69.9783 10.18 71.0283 9.31 72.3483 8.87C72.8283 8.71 73.3583 8.63 73.9383 8.63C75.2983 8.63 76.3283 8.94 77.0283 9.56C77.7283 10.16 78.0783 11.02 78.0783 12.14C78.0783 13.24 77.9283 14.36 77.6283 15.5C77.3483 16.64 77.1383 17.46 76.9983 17.96C76.8783 18.44 76.8183 18.84 76.8183 19.16C76.8183 19.48 76.9283 19.64 77.1483 19.64C77.4483 19.64 77.8183 19.45 78.2583 19.07C78.6983 18.69 79.1383 18.28 79.5783 17.84C80.0183 17.38 80.4183 16.96 80.7783 16.58C81.1583 16.2 81.4183 16.01 81.5583 16.01C81.8383 16.01 81.9783 16.35 81.9783 17.03C81.9783 18.43 81.2883 19.78 79.9083 21.08C77.5883 22.44 76.1083 23.12 75.4683 23.12C75.4083 23.12 75.3683 23.11 75.3483 23.09C73.7483 23.09 72.9483 21.81 72.9483 19.25C72.9483 18.15 73.0483 17.14 73.2483 16.22C73.4683 15.3 73.6283 14.63 73.7283 14.21C73.8283 13.79 73.8783 13.36 73.8783 12.92ZM87.4603 19.73C89.0203 19.73 90.5303 19.11 91.9903 17.87C92.5303 17.41 92.9703 16.99 93.3103 16.61C93.6503 16.21 93.9103 16.01 94.0903 16.01C94.3703 16.01 94.5103 16.29 94.5103 16.85C94.5103 17.41 94.3603 18.04 94.0603 18.74C93.7603 19.42 93.2603 20.09 92.5603 20.75C90.8403 22.37 88.4803 23.18 85.4803 23.18C83.1003 23.18 81.4803 22.32 80.6203 20.6C80.3203 20 80.1703 19.14 80.1703 18.02C80.1703 16.9 80.3903 15.74 80.8303 14.54C81.2703 13.32 81.8503 12.27 82.5703 11.39C83.3103 10.51 84.1603 9.83 85.1203 9.35C86.0803 8.85 87.1003 8.6 88.1803 8.6C89.2803 8.6 90.1203 8.87 90.7003 9.41C91.3003 9.95 91.6003 10.65 91.6003 11.51C91.6003 12.37 91.3803 13.08 90.9403 13.64C90.5203 14.18 89.9703 14.64 89.2903 15.02C88.6103 15.38 87.8503 15.71 87.0103 16.01C86.1903 16.29 85.3803 16.61 84.5803 16.97V17.72C84.6003 18.44 84.9003 18.95 85.4803 19.25C86.0603 19.55 86.7203 19.71 87.4603 19.73ZM86.9503 11.27C85.9103 11.27 85.1903 12.48 84.7903 14.9C85.2103 14.62 85.6003 14.37 85.9603 14.15C86.3403 13.93 86.6703 13.72 86.9503 13.52C87.5503 13.08 87.8603 12.58 87.8803 12.02C87.8803 11.52 87.5703 11.27 86.9503 11.27ZM99.9994 19.73C101.559 19.73 103.069 19.11 104.529 17.87C105.069 17.41 105.509 16.99 105.849 16.61C106.189 16.21 106.449 16.01 106.629 16.01C106.909 16.01 107.049 16.29 107.049 16.85C107.049 17.41 106.899 18.04 106.599 18.74C106.299 19.42 105.799 20.09 105.099 20.75C103.379 22.37 101.019 23.18 98.0194 23.18C95.6394 23.18 94.0194 22.32 93.1594 20.6C92.8594 20 92.7094 19.14 92.7094 18.02C92.7094 16.9 92.9294 15.74 93.3694 14.54C93.8094 13.32 94.3894 12.27 95.1094 11.39C95.8494 10.51 96.6994 9.83 97.6594 9.35C98.6194 8.85 99.6394 8.6 100.719 8.6C101.819 8.6 102.659 8.87 103.239 9.41C103.839 9.95 104.139 10.65 104.139 11.51C104.139 12.37 103.919 13.08 103.479 13.64C103.059 14.18 102.509 14.64 101.829 15.02C101.149 15.38 100.389 15.71 99.5494 16.01C98.7294 16.29 97.9194 16.61 97.1194 16.97V17.72C97.1394 18.44 97.4394 18.95 98.0194 19.25C98.5994 19.55 99.2594 19.71 99.9994 19.73ZM99.4894 11.27C98.4494 11.27 97.7294 12.48 97.3294 14.9C97.7494 14.62 98.1394 14.37 98.4994 14.15C98.8794 13.93 99.2094 13.72 99.4894 13.52C100.089 13.08 100.399 12.58 100.419 12.02C100.419 11.52 100.109 11.27 99.4894 11.27ZM115.478 2.3C115.818 1.96 116.178 1.79 116.558 1.79C117.198 1.79 117.748 2.03 118.208 2.51C118.688 2.97 118.938 3.35 118.958 3.65C118.938 4.19 118.738 4.77 118.358 5.39C117.998 5.99 117.598 6.63 117.158 7.31C116.718 7.97 116.318 8.67 115.958 9.41C115.598 10.13 115.418 10.79 115.418 11.39C115.418 11.97 115.468 12.53 115.568 13.07C115.668 13.59 115.718 14.02 115.718 14.36C115.718 14.96 115.348 15.45 114.608 15.83C113.868 16.19 113.168 16.37 112.508 16.37C111.848 16.37 111.418 16.21 111.218 15.89C111.038 15.55 110.948 15.04 110.948 14.36C110.948 12.7 111.358 10.61 112.178 8.09C113.018 5.55 114.118 3.62 115.478 2.3ZM115.268 20.33C114.868 21.35 114.268 22.2 113.468 22.88C112.668 23.54 111.798 23.87 110.858 23.87C109.918 23.87 109.448 23.36 109.448 22.34C109.448 21.3 109.778 20.37 110.438 19.55C111.118 18.73 111.798 18.32 112.478 18.32C113.678 18.32 114.608 18.99 115.268 20.33Z" fill="#33ACC7"/>
</svg>
